<svg xmlns="http://www.w3.org/2000/svg" xmlns:xlink="http://www.w3.org/1999/xlink" width="64" height="38" viewBox="0 0 64 38"><defs><path id="niv7a" d="M921 287.6c-13.64 0-25.33-12.18-28.34-15.6 3-3.42 14.68-15.6 28.34-15.6s25.33 12.18 28.34 15.6c-3.01 3.42-14.7 15.6-28.34 15.6zm22.18-25.22c-7.39-5.76-15.06-8.8-22.18-8.8-7.13 0-14.8 3.04-22.19 8.8a58.3 58.3 0 0 0-9.04 8.74l-.73.88.7.88a58.3 58.3 0 0 0 9.04 8.74c7.42 5.75 15.1 8.8 22.22 8.8 7.12 0 14.8-3.05 22.18-8.8a58.3 58.3 0 0 0 9.05-8.74l.7-.88-.7-.88a58.3 58.3 0 0 0-9.05-8.74z"/><path id="niv7b" d="M921 280.78a8.76 8.76 0 0 1-8.54-8.94c.07-4.84 4-8.72 8.79-8.68a8.76 8.76 0 0 1 8.63 8.84 8.86 8.86 0 0 1-8.88 8.8zm0-20.41a11.56 11.56 0 0 0-11.32 11.74 11.56 11.56 0 0 0 11.55 11.5A11.56 11.56 0 0 0 932.66 272 11.65 11.65 0 0 0 921 260.37z"/></defs><g><g clip-path="url(#clip-D85148CA-18A8-42B8-8040-FD265A955C46)" transform="translate(-889 -253)"><g><use fill="#fff" xlink:href="#niv7a"/></g><g><use fill="#fff" xlink:href="#niv7b"/></g></g></g></svg>