<svg xmlns="http://www.w3.org/2000/svg" xmlns:xlink="http://www.w3.org/1999/xlink" width="18" height="16" viewBox="0 0 18 16"><defs><path id="dp9fa" d="M1271.36 633.9a.92.92 0 0 1-.83.06.85.85 0 0 1-.52-.62l-.7-3.73-.04-.16 4.35 2.97c.03.05-1.27.86-2.26 1.47zm12.63-15.38l-5.38 14.06c-.14.36-.44.63-.82.74-.38.11-.79.05-1.1-.18l-5.04-3.5 11.55-10.86-13.06 9.82-3.67-2.56a1.06 1.06 0 0 1-.46-1.02c.05-.4.33-.72.72-.87l16.73-6.12a.42.42 0 0 1 .43.08c.11.1.15.27.1.41z"/></defs><g><g transform="translate(-1266 -618)"><use fill="#fff" xlink:href="#dp9fa"/></g></g></svg>