<svg xmlns="http://www.w3.org/2000/svg" xmlns:xlink="http://www.w3.org/1999/xlink" width="18" height="18" viewBox="0 0 18 18"><defs><path id="xl4xa" d="M1193 81.4a3.6 3.6 0 1 1-6.96-1.29l-4.45-2.3a3.6 3.6 0 1 1 .06-3.92l4.36-2.1a3.58 3.58 0 0 1 3.39-4.79 3.6 3.6 0 1 1-3.05 5.51l-4.36 2.1a3.58 3.58 0 0 1-.03 2.48l4.45 2.3a3.6 3.6 0 0 1 6.59 2.01zm-6.4-10.8a2.8 2.8 0 1 0 5.6 0 2.8 2.8 0 0 0-5.6 0zm-5.2 5.2a2.8 2.8 0 1 0-5.6 0 2.8 2.8 0 0 0 5.6 0zm10.8 5.6a2.8 2.8 0 1 0-5.6 0 2.8 2.8 0 0 0 5.6 0z"/></defs><g><g transform="translate(-1175 -67)"><use fill="#ea1f26" xlink:href="#xl4xa"/></g></g></svg>