<svg xmlns="http://www.w3.org/2000/svg" xmlns:xlink="http://www.w3.org/1999/xlink" width="54" height="54" viewBox="0 0 54 54"><defs><path id="ba0pa" d="M141 79a27 27 0 1 1 54 0 27 27 0 0 1-54 0z"/><path id="ba0pb" d="M169.23 78.9l6.3 6.3c.38.38.38.98 0 1.33a.92.92 0 0 1-1.32 0l-6.3-6.3-6.3 6.3a.92.92 0 0 1-1.33 0 .92.92 0 0 1 0-1.32l6.3-6.3-6.3-6.3a.92.92 0 0 1 0-1.33.92.92 0 0 1 1.32 0l6.3 6.3 6.3-6.3a.92.92 0 0 1 1.33 0c.38.38.38.97 0 1.32z"/></defs><g><g transform="translate(-141 -52)"><g><use fill="#fff" xlink:href="#ba0pa"/></g><g><g><use fill="#ea1f26" xlink:href="#ba0pb"/></g></g></g></g></svg>