<svg xmlns="http://www.w3.org/2000/svg" xmlns:xlink="http://www.w3.org/1999/xlink" width="64" height="38" viewBox="0 0 64 38"><defs><path id="35bha" d="M342.18 402.38a58.3 58.3 0 0 1 9.05 8.74l.7.88-.7.88a58.3 58.3 0 0 1-9.05 8.74c-7.39 5.75-15.06 8.8-22.18 8.8-7.13 0-14.8-3.05-22.22-8.8a58.3 58.3 0 0 1-9.04-8.74l-.7-.88.73-.88a58.3 58.3 0 0 1 9.04-8.74c7.4-5.76 15.06-8.8 22.19-8.8 7.12 0 14.8 3.04 22.18 8.8zm6.16 9.62c-3.01-3.42-14.68-15.6-28.34-15.6s-25.34 12.18-28.34 15.6c3.01 3.42 14.7 15.6 28.34 15.6s25.33-12.18 28.34-15.6z"/><path id="35bhb" d="M331.66 412c0 6.4-5.1 11.59-11.43 11.62a11.56 11.56 0 0 1-11.55-11.5c-.06-6.4 5-11.65 11.32-11.75A11.65 11.65 0 0 1 331.66 412zM320 420.8a8.86 8.86 0 0 0 8.88-8.8 8.76 8.76 0 0 0-8.63-8.84 8.76 8.76 0 0 0-8.79 8.68 8.76 8.76 0 0 0 8.54 8.94z"/></defs><g><g clip-path="url(#clip-0E75B539-B400-4602-8CE7-27A0337CCF30)" transform="translate(-288 -393)"><g><use fill="#fff" xlink:href="#35bha"/></g><g><use fill="#fff" xlink:href="#35bhb"/></g></g></g></svg>