<svg xmlns="http://www.w3.org/2000/svg" xmlns:xlink="http://www.w3.org/1999/xlink" width="265" height="37" viewBox="0 0 265 37"><defs><path id="v7sda" d="M208 25l-14 24-14-24zm16 0l-21.42 37-5.58-9.39L213.09 25zm15 0l-7.64 13.16c-1.6.99-2.97 2.26-4.13 3.81-1.49 2-2.47 4.35-2.95 7.04-.1.59-.17 1.15-.21 1.7L217.5 62 212 52.61 228.14 25z"/><path id="v7sdb" d="M248.21 39.59c1.8 1.68 2.7 3.93 2.7 6.76 0 .66-.07 1.46-.22 2.41-.11.7-.3 1.36-.56 2h-16.71c-.06.57-.09.96-.09 1.16 0 2.62 1.26 3.93 3.76 3.93a5.08 5.08 0 0 0 4.66-2.94h7.82a13.1 13.1 0 0 1-4.94 6.4 14 14 0 0 1-8.23 2.45c-3.11 0-5.58-.86-7.4-2.59-1.84-1.72-2.75-4.12-2.75-7.17 0-.92.09-1.9.26-2.93a14.83 14.83 0 0 1 2.68-6.4 13.5 13.5 0 0 1 5.03-4.16c2-.97 4.18-1.45 6.54-1.45 3.17 0 5.65.84 7.45 2.53m-4.67 6.75c0-1.15-.37-2-1.09-2.58a4.23 4.23 0 0 0-2.72-.87 5.7 5.7 0 0 0-3.59 1.21 6.3 6.3 0 0 0-2.16 3.54h9.43c.08-.5.13-.92.13-1.3"/><path id="v7sdc" d="M252.16 61.47l5.66-31.96h7.39l-2.16 12.22a9.49 9.49 0 0 1 3.5-3.41 9.98 9.98 0 0 1 5-1.25c2.57 0 4.62.82 6.16 2.46 1.54 1.64 2.32 3.92 2.32 6.82a17.7 17.7 0 0 1-2.79 9.63 12.96 12.96 0 0 1-4.47 4.3c-1.76 1-3.62 1.5-5.58 1.5-1.87 0-3.39-.43-4.56-1.26a5.69 5.69 0 0 1-2.26-3.41l-.82 4.36zm17.86-7.74a7.17 7.17 0 0 0 2.22-4.32c.09-.51.13-.99.13-1.42 0-1.4-.4-2.5-1.19-3.28a4.34 4.34 0 0 0-3.17-1.16c-1.56 0-2.92.52-4.1 1.57a7.2 7.2 0 0 0-2.25 4.3c-.09.45-.13.92-.13 1.37 0 1.42.4 2.51 1.19 3.3.79.8 1.85 1.2 3.17 1.2a6 6 0 0 0 4.13-1.56z"/><path id="v7sdd" d="M301.31 39.33a8.48 8.48 0 0 1 2.98 6.07h-7.25c-.03-1.01-.4-1.79-1.13-2.34a4.75 4.75 0 0 0-2.93-.82c-.9 0-1.62.18-2.18.52-.56.35-.84.85-.84 1.51 0 .67.38 1.18 1.16 1.56.78.37 1.96.76 3.54 1.16 1.76.5 3.19.96 4.3 1.4a7.6 7.6 0 0 1 2.87 2.04c.8.9 1.21 2.1 1.21 3.56 0 .6-.06 1.15-.17 1.64a6.68 6.68 0 0 1-3.13 4.43c-1.75 1.14-4.08 1.7-7.02 1.7-3.25 0-5.87-.72-7.84-2.18a7.64 7.64 0 0 1-3.13-6.15h7.26a2.42 2.42 0 0 0 1.07 2.37c.81.55 1.89.82 3.24.82.98 0 1.72-.19 2.2-.58.5-.39.74-.9.74-1.53 0-.72-.37-1.26-1.12-1.62-.75-.36-1.96-.77-3.63-1.23a33.34 33.34 0 0 1-4.15-1.32 7.63 7.63 0 0 1-2.82-1.99 4.99 4.99 0 0 1-1.2-3.47c0-.32.06-.85.18-1.6a6.5 6.5 0 0 1 3.07-4.47c1.75-1.17 4.1-1.75 7.04-1.75 3.33 0 5.9.76 7.68 2.27"/><path id="v7sde" d="M317.07 37.36l-4.27 24.1h-7.39l4.23-24.1zm-5.49-9.34a5.3 5.3 0 0 1 3.68-1.32c1.15 0 2.06.3 2.74.88.68.6 1.01 1.37 1.01 2.32a4.2 4.2 0 0 1-1.44 3.22 5.2 5.2 0 0 1-3.65 1.32c-1.19 0-2.11-.3-2.79-.89a2.87 2.87 0 0 1-1.02-2.27c0-1.3.5-2.38 1.47-3.26z"/><path id="v7sdf" d="M340.5 39.59c1.8 1.68 2.7 3.93 2.7 6.76 0 .66-.07 1.46-.22 2.41-.11.7-.3 1.36-.56 2h-16.71c-.06.57-.09.96-.09 1.16 0 2.62 1.26 3.93 3.76 3.93a5.08 5.08 0 0 0 4.66-2.94h7.82a13.1 13.1 0 0 1-4.94 6.4 14 14 0 0 1-8.23 2.45c-3.11 0-5.58-.86-7.4-2.59-1.84-1.72-2.75-4.12-2.75-7.17 0-.92.09-1.9.26-2.93a14.84 14.84 0 0 1 2.68-6.4 13.51 13.51 0 0 1 5.03-4.16c2-.97 4.18-1.45 6.54-1.45 3.17 0 5.65.84 7.45 2.53m-4.69 6.75c0-1.15-.35-2-1.07-2.58a4.22 4.22 0 0 0-2.73-.87c-1.35 0-2.54.4-3.58 1.21a6.3 6.3 0 0 0-2.16 3.54h9.42c.08-.5.12-.92.12-1.3"/><path id="v7sdg" d="M372.56 37.37l-4.23 24.1h-7.43l.78-4.4a9.94 9.94 0 0 1-3.67 3.4 10.36 10.36 0 0 1-5.05 1.26c-2.33 0-4.16-.67-5.47-2.01-1.3-1.34-1.96-3.23-1.96-5.68 0-.83.09-1.73.26-2.68l2.46-13.99h7.39l-2.34 13.09c-.08.46-.13.89-.13 1.3 0 1.23.35 2.19 1.04 2.86.7.68 1.66 1.02 2.9 1.02 1.46 0 2.72-.48 3.77-1.43a6.74 6.74 0 0 0 2.01-4.06v.18l2.29-12.96z"/><path id="v7sdh" d="M383.19 52.57c-.06.4-.09.68-.09.82 0 .6.17 1.04.52 1.32.34.27.9.4 1.68.4h2.34l-1.13 6.35h-3.37c-2.41 0-4.28-.5-5.59-1.5-1.3-1.01-1.96-2.67-1.96-4.97 0-.92.07-1.77.21-2.55l1.56-8.85h-3.2l1.12-6.22h3.2l1.04-5.92h7.42l-1.03 5.92h4.8l-1.09 6.22h-4.84z"/><path id="v7sdi" d="M412.18 38.27a8.9 8.9 0 0 1 3.8 3.52c.91 1.54 1.36 3.36 1.36 5.46 0 .87-.08 1.8-.25 2.81a13.86 13.86 0 0 1-7.84 10.28 15.27 15.27 0 0 1-6.55 1.42c-2.16 0-4.06-.4-5.7-1.23a9.04 9.04 0 0 1-3.82-3.52 10.46 10.46 0 0 1-1.36-5.44c0-.9.09-1.83.26-2.8a14.05 14.05 0 0 1 2.72-6.25 13.58 13.58 0 0 1 5.16-4.06c2.06-.93 4.26-1.4 6.59-1.4 2.13 0 4 .4 5.63 1.21m-10.36 6.7c-1.14 1-1.88 2.48-2.22 4.44-.12.75-.18 1.28-.18 1.6 0 1.41.38 2.48 1.15 3.22.76.73 1.75 1.1 2.95 1.1 1.41 0 2.69-.5 3.82-1.51a7.41 7.41 0 0 0 2.23-4.4c.08-.58.13-1.12.13-1.6 0-1.41-.39-2.5-1.15-3.24a3.99 3.99 0 0 0-2.91-1.12c-1.41 0-2.68.5-3.82 1.5"/><path id="v7sdj" d="M441.33 39.63c1.86 1.71 2.8 4.07 2.83 7.06h-7.86a3.47 3.47 0 0 0-.99-2.42 3.55 3.55 0 0 0-2.55-.86 4.8 4.8 0 0 0-3.48 1.53c-1.02 1.03-1.7 2.51-2.05 4.47a9.25 9.25 0 0 0-.17 1.82c0 1.38.33 2.42 1 3.13.66.7 1.53 1.06 2.63 1.06a4.78 4.78 0 0 0 4.66-3.29h7.82a14.3 14.3 0 0 1-5.2 7.06 13.89 13.89 0 0 1-8.27 2.57c-3.11 0-5.6-.88-7.45-2.65-1.86-1.77-2.79-4.21-2.79-7.32 0-.75.1-1.76.3-3.03.43-2.38 1.31-4.46 2.64-6.24a13.15 13.15 0 0 1 4.92-4.06c1.96-.93 4.1-1.4 6.43-1.4 3.2 0 5.73.86 7.58 2.57"/></defs><g><g transform="translate(-180 -25)"><g><use fill="#d51a1a" xlink:href="#v7sda"/></g><g><g><use fill="#d51a1a" xlink:href="#v7sdb"/></g><g><use fill="#d51a1a" xlink:href="#v7sdc"/></g><g><use fill="#9b9b9b" xlink:href="#v7sdd"/></g><g><use fill="#9b9b9b" xlink:href="#v7sde"/></g><g><use fill="#9b9b9b" xlink:href="#v7sdf"/></g><g><use fill="#9b9b9b" xlink:href="#v7sdg"/></g><g><use fill="#9b9b9b" xlink:href="#v7sdh"/></g><g><use fill="#9b9b9b" xlink:href="#v7sdi"/></g><g><use fill="#9b9b9b" xlink:href="#v7sdj"/></g></g></g></g></svg>