<?xml version="1.0" encoding="UTF-8"?>
<svg width="120px" height="23px" viewBox="0 0 120 23" version="1.1" xmlns="http://www.w3.org/2000/svg" xmlns:xlink="http://www.w3.org/1999/xlink">
    <!-- Generator: Sketch 49 (51002) - http://www.bohemiancoding.com/sketch -->
    <title>Group 2</title>
    <desc>Created with Sketch.</desc>
    <defs></defs>
    <g id="Website" stroke="none" stroke-width="1" fill="none" fill-rule="evenodd">
        <g id="Loading" transform="translate(-660.000000, -380.000000)">
            <g id="Group-3" transform="translate(598.000000, 353.000000)">
                <g id="Group-2" transform="translate(51.000000, 0.000000)">
                    <g id="noun_12709_cc-copy-2" opacity="0.150000006" transform="translate(56.500000, 37.500000) rotate(-330.000000) translate(-56.500000, -37.500000) translate(31.000000, 10.000000)">
                        <g id="Group" transform="translate(25.400109, 27.710029) rotate(-321.000000) translate(-25.400109, -27.710029) translate(11.900109, 4.210029)">
                            <path d="M13.1241545,14.8450696 C5.33738182,23.613113 0.170618182,28.9863913 0.170618182,28.9863913 L6.84698182,30.0910957 L13.1241545,14.8450696 L13.1241545,14.8450696 Z" id="Shape" fill="#D51A1A"></path>
                            <path d="M26.3178545,20.1095826 C25.8245455,19.5846522 24.9941727,19.5560783 24.4647,20.0487478 L21.5020636,22.7987565 L21.7093091,18.366113 C21.7417636,17.6466957 21.1821545,17.0365043 20.4598091,17.0033217 C20.3364818,16.9982522 20.2159364,17.0120783 20.1023455,17.037887 L16.4011364,15.659887 L17.136,13.6689304 C17.4049091,14.5201565 18.0178364,15.2621565 18.8955,15.6695652 C20.5553182,16.4456696 22.5345818,15.7336261 23.3139545,14.0832522 C24.0933273,12.4328783 23.3788636,10.4663478 21.7171909,9.69116522 C20.6522182,9.19526957 19.4588182,9.30910435 18.5329364,9.88887826 L21.3782727,2.17668696 C21.6295636,1.50105217 21.2790545,0.751678261 20.5998273,0.504191304 C19.9192091,0.256243478 19.1653364,0.602356522 18.9168273,1.2779913 L13.5613636,15.7875478 C13.5530182,15.8105913 13.5451364,15.8345565 13.5391091,15.8576 L8.91248182,26.8511826 L8.92917273,26.8608609 C8.87678182,26.9553391 8.82902727,27.0516609 8.79100909,27.1562783 L2.73313636,43.8927565 C2.36593636,44.9103565 2.8968,46.0307304 3.91958182,46.3938957 C4.13888182,46.474087 4.36374545,46.5109565 4.5849,46.5109565 C5.39116364,46.5109565 6.14689091,46.0141391 6.4362,45.2163739 L12.4361182,28.6361304 L13.8108,29.3315826 L10.7313273,34.5748957 C10.1823818,35.506313 10.4995091,36.7050348 11.4369818,37.2502435 C11.7490091,37.4313652 12.0902455,37.5166261 12.4259182,37.5166261 C13.1032909,37.5166261 13.7611909,37.1691304 14.127,36.5474174 L18.5936727,28.944913 C19.1421545,28.0130348 18.8245636,26.8147739 17.8875545,26.270487 C17.7410455,26.1843043 17.5866545,26.1239304 17.4299455,26.079687 L18.8662909,23.0397913 L18.7346182,25.8773652 C18.7095818,26.4069043 19.0118727,26.8986522 19.4940545,27.1207913 C19.6702364,27.2009826 19.8589364,27.2410783 20.0439273,27.2410783 C20.3698636,27.2410783 20.6916273,27.1207913 20.9401364,26.8898957 L26.2557273,21.9512174 C26.7847364,21.4603913 26.8116273,20.6358957 26.3178545,20.1095826 L26.3178545,20.1095826 Z" id="Shape" fill="#500900"></path>
                        </g>
                    </g>
                    <g id="noun_12709_cc-copy-3" opacity="0.1" transform="translate(36.500000, 37.500000) rotate(-330.000000) translate(-36.500000, -37.500000) translate(11.000000, 10.000000)">
                        <g id="Group" transform="translate(25.400109, 27.710029) rotate(-321.000000) translate(-25.400109, -27.710029) translate(11.900109, 4.210029)">
                            <path d="M13.1241545,14.8450696 C5.33738182,23.613113 0.170618182,28.9863913 0.170618182,28.9863913 L6.84698182,30.0910957 L13.1241545,14.8450696 L13.1241545,14.8450696 Z" id="Shape" fill="#D51A1A"></path>
                            <path d="M26.3178545,20.1095826 C25.8245455,19.5846522 24.9941727,19.5560783 24.4647,20.0487478 L21.5020636,22.7987565 L21.7093091,18.366113 C21.7417636,17.6466957 21.1821545,17.0365043 20.4598091,17.0033217 C20.3364818,16.9982522 20.2159364,17.0120783 20.1023455,17.037887 L16.4011364,15.659887 L17.136,13.6689304 C17.4049091,14.5201565 18.0178364,15.2621565 18.8955,15.6695652 C20.5553182,16.4456696 22.5345818,15.7336261 23.3139545,14.0832522 C24.0933273,12.4328783 23.3788636,10.4663478 21.7171909,9.69116522 C20.6522182,9.19526957 19.4588182,9.30910435 18.5329364,9.88887826 L21.3782727,2.17668696 C21.6295636,1.50105217 21.2790545,0.751678261 20.5998273,0.504191304 C19.9192091,0.256243478 19.1653364,0.602356522 18.9168273,1.2779913 L13.5613636,15.7875478 C13.5530182,15.8105913 13.5451364,15.8345565 13.5391091,15.8576 L8.91248182,26.8511826 L8.92917273,26.8608609 C8.87678182,26.9553391 8.82902727,27.0516609 8.79100909,27.1562783 L2.73313636,43.8927565 C2.36593636,44.9103565 2.8968,46.0307304 3.91958182,46.3938957 C4.13888182,46.474087 4.36374545,46.5109565 4.5849,46.5109565 C5.39116364,46.5109565 6.14689091,46.0141391 6.4362,45.2163739 L12.4361182,28.6361304 L13.8108,29.3315826 L10.7313273,34.5748957 C10.1823818,35.506313 10.4995091,36.7050348 11.4369818,37.2502435 C11.7490091,37.4313652 12.0902455,37.5166261 12.4259182,37.5166261 C13.1032909,37.5166261 13.7611909,37.1691304 14.127,36.5474174 L18.5936727,28.944913 C19.1421545,28.0130348 18.8245636,26.8147739 17.8875545,26.270487 C17.7410455,26.1843043 17.5866545,26.1239304 17.4299455,26.079687 L18.8662909,23.0397913 L18.7346182,25.8773652 C18.7095818,26.4069043 19.0118727,26.8986522 19.4940545,27.1207913 C19.6702364,27.2009826 19.8589364,27.2410783 20.0439273,27.2410783 C20.3698636,27.2410783 20.6916273,27.1207913 20.9401364,26.8898957 L26.2557273,21.9512174 C26.7847364,21.4603913 26.8116273,20.6358957 26.3178545,20.1095826 L26.3178545,20.1095826 Z" id="Shape" fill="#500900"></path>
                        </g>
                    </g>
                    <g id="noun_12709_cc-copy" opacity="0.200000018" transform="translate(76.500000, 37.500000) rotate(-330.000000) translate(-76.500000, -37.500000) translate(51.000000, 10.000000)">
                        <g id="Group" transform="translate(25.400109, 27.710029) rotate(-321.000000) translate(-25.400109, -27.710029) translate(11.900109, 4.210029)">
                            <path d="M13.1241545,14.8450696 C5.33738182,23.613113 0.170618182,28.9863913 0.170618182,28.9863913 L6.84698182,30.0910957 L13.1241545,14.8450696 L13.1241545,14.8450696 Z" id="Shape" fill="#D51A1A"></path>
                            <path d="M26.3178545,20.1095826 C25.8245455,19.5846522 24.9941727,19.5560783 24.4647,20.0487478 L21.5020636,22.7987565 L21.7093091,18.366113 C21.7417636,17.6466957 21.1821545,17.0365043 20.4598091,17.0033217 C20.3364818,16.9982522 20.2159364,17.0120783 20.1023455,17.037887 L16.4011364,15.659887 L17.136,13.6689304 C17.4049091,14.5201565 18.0178364,15.2621565 18.8955,15.6695652 C20.5553182,16.4456696 22.5345818,15.7336261 23.3139545,14.0832522 C24.0933273,12.4328783 23.3788636,10.4663478 21.7171909,9.69116522 C20.6522182,9.19526957 19.4588182,9.30910435 18.5329364,9.88887826 L21.3782727,2.17668696 C21.6295636,1.50105217 21.2790545,0.751678261 20.5998273,0.504191304 C19.9192091,0.256243478 19.1653364,0.602356522 18.9168273,1.2779913 L13.5613636,15.7875478 C13.5530182,15.8105913 13.5451364,15.8345565 13.5391091,15.8576 L8.91248182,26.8511826 L8.92917273,26.8608609 C8.87678182,26.9553391 8.82902727,27.0516609 8.79100909,27.1562783 L2.73313636,43.8927565 C2.36593636,44.9103565 2.8968,46.0307304 3.91958182,46.3938957 C4.13888182,46.474087 4.36374545,46.5109565 4.5849,46.5109565 C5.39116364,46.5109565 6.14689091,46.0141391 6.4362,45.2163739 L12.4361182,28.6361304 L13.8108,29.3315826 L10.7313273,34.5748957 C10.1823818,35.506313 10.4995091,36.7050348 11.4369818,37.2502435 C11.7490091,37.4313652 12.0902455,37.5166261 12.4259182,37.5166261 C13.1032909,37.5166261 13.7611909,37.1691304 14.127,36.5474174 L18.5936727,28.944913 C19.1421545,28.0130348 18.8245636,26.8147739 17.8875545,26.270487 C17.7410455,26.1843043 17.5866545,26.1239304 17.4299455,26.079687 L18.8662909,23.0397913 L18.7346182,25.8773652 C18.7095818,26.4069043 19.0118727,26.8986522 19.4940545,27.1207913 C19.6702364,27.2009826 19.8589364,27.2410783 20.0439273,27.2410783 C20.3698636,27.2410783 20.6916273,27.1207913 20.9401364,26.8898957 L26.2557273,21.9512174 C26.7847364,21.4603913 26.8116273,20.6358957 26.3178545,20.1095826 L26.3178545,20.1095826 Z" id="Shape" fill="#500900"></path>
                        </g>
                    </g>
                    <g id="noun_12709_cc" transform="translate(106.500000, 37.500000) rotate(-330.000000) translate(-106.500000, -37.500000) translate(81.000000, 10.000000)">
                        <g id="Group" transform="translate(25.400109, 27.710029) rotate(-321.000000) translate(-25.400109, -27.710029) translate(11.900109, 4.210029)">
                            <path d="M13.1241545,14.8450696 C5.33738182,23.613113 0.170618182,28.9863913 0.170618182,28.9863913 L6.84698182,30.0910957 L13.1241545,14.8450696 L13.1241545,14.8450696 Z" id="Shape" fill="#D51A1A"></path>
                            <path d="M26.3178545,20.1095826 C25.8245455,19.5846522 24.9941727,19.5560783 24.4647,20.0487478 L21.5020636,22.7987565 L21.7093091,18.366113 C21.7417636,17.6466957 21.1821545,17.0365043 20.4598091,17.0033217 C20.3364818,16.9982522 20.2159364,17.0120783 20.1023455,17.037887 L16.4011364,15.659887 L17.136,13.6689304 C17.4049091,14.5201565 18.0178364,15.2621565 18.8955,15.6695652 C20.5553182,16.4456696 22.5345818,15.7336261 23.3139545,14.0832522 C24.0933273,12.4328783 23.3788636,10.4663478 21.7171909,9.69116522 C20.6522182,9.19526957 19.4588182,9.30910435 18.5329364,9.88887826 L21.3782727,2.17668696 C21.6295636,1.50105217 21.2790545,0.751678261 20.5998273,0.504191304 C19.9192091,0.256243478 19.1653364,0.602356522 18.9168273,1.2779913 L13.5613636,15.7875478 C13.5530182,15.8105913 13.5451364,15.8345565 13.5391091,15.8576 L8.91248182,26.8511826 L8.92917273,26.8608609 C8.87678182,26.9553391 8.82902727,27.0516609 8.79100909,27.1562783 L2.73313636,43.8927565 C2.36593636,44.9103565 2.8968,46.0307304 3.91958182,46.3938957 C4.13888182,46.474087 4.36374545,46.5109565 4.5849,46.5109565 C5.39116364,46.5109565 6.14689091,46.0141391 6.4362,45.2163739 L12.4361182,28.6361304 L13.8108,29.3315826 L10.7313273,34.5748957 C10.1823818,35.506313 10.4995091,36.7050348 11.4369818,37.2502435 C11.7490091,37.4313652 12.0902455,37.5166261 12.4259182,37.5166261 C13.1032909,37.5166261 13.7611909,37.1691304 14.127,36.5474174 L18.5936727,28.944913 C19.1421545,28.0130348 18.8245636,26.8147739 17.8875545,26.270487 C17.7410455,26.1843043 17.5866545,26.1239304 17.4299455,26.079687 L18.8662909,23.0397913 L18.7346182,25.8773652 C18.7095818,26.4069043 19.0118727,26.8986522 19.4940545,27.1207913 C19.6702364,27.2009826 19.8589364,27.2410783 20.0439273,27.2410783 C20.3698636,27.2410783 20.6916273,27.1207913 20.9401364,26.8898957 L26.2557273,21.9512174 C26.7847364,21.4603913 26.8116273,20.6358957 26.3178545,20.1095826 L26.3178545,20.1095826 Z" id="Shape" fill="#500900"></path>
                        </g>
                    </g>
                </g>
            </g>
        </g>
    </g>
</svg>